<svg width="17" height="16" viewBox="0 0 17 16" fill="none" xmlns="http://www.w3.org/2000/svg">
<path d="M10.5 12.5C10.5 12.5 11.25 11 13 11C14.75 11 15.5 12.5 15.5 12.5C15.5 12.5 14.75 14 13 14C11.25 14 10.5 12.5 10.5 12.5Z" stroke="white" stroke-width="0.5" stroke-linecap="round" stroke-linejoin="round"/>
<path d="M12.95 13.25C13.3642 13.25 13.7 12.9142 13.7 12.5C13.7 12.0858 13.3642 11.75 12.95 11.75C12.5357 11.75 12.2 12.0858 12.2 12.5C12.2 12.9142 12.5357 13.25 12.95 13.25Z" stroke="white" stroke-width="0.5" stroke-linecap="round" stroke-linejoin="round"/>
<path d="M2.61328 4.96094L8.49995 8.3676L14.3466 4.98094" stroke="white" stroke-width="1.33" stroke-linecap="round" stroke-linejoin="round"/>
<path d="M8.5 14.406V8.35938" stroke="white" stroke-width="1.33" stroke-linecap="round" stroke-linejoin="round"/>
<path d="M8.5 0.666021C9.00956 0.665218 9.54708 0.757564 10.0117 0.965825L10.207 1.06153L10.21 1.06446L13.7705 3.04395H13.7695C14.3011 3.33854 14.7459 3.82817 15.0557 4.35352C15.3654 4.87899 15.5791 5.50519 15.5791 6.11231V9.87891C15.5791 10.1587 15.5314 10.4418 15.4521 10.7178C15.1043 10.4736 14.6856 10.282 14.2197 10.1582C14.2378 10.0601 14.249 9.96645 14.249 9.87891V6.11231C14.249 5.7997 14.1317 5.40528 13.9102 5.0293C13.6885 4.65338 13.3996 4.35921 13.125 4.20704L13.124 4.20606L9.56738 2.22852L9.46387 2.17774C9.2094 2.06459 8.86858 1.99554 8.50195 1.9961C8.13525 1.99676 7.79794 2.067 7.54785 2.18067L7.44238 2.2334L3.88281 4.20704C3.60812 4.35914 3.3194 4.6533 3.09766 5.0293C2.87596 5.40536 2.75879 5.79961 2.75879 6.11231V9.87891C2.75888 10.1916 2.87595 10.5859 3.09766 10.9619C3.29167 11.2908 3.53705 11.5566 3.7793 11.7197L3.88281 11.7832L3.88379 11.7842L7.44336 13.7637H7.44238C7.69902 13.9053 8.08279 13.9951 8.50391 13.9951C8.92428 13.995 9.30695 13.9049 9.56348 13.7637L9.85645 13.6006C10.1083 13.967 10.4836 14.2801 10.9414 14.5186L10.21 14.9268L10.209 14.9277C9.70577 15.2058 9.08558 15.3251 8.50391 15.3252C7.9948 15.3252 7.45606 15.2336 6.99219 15.0244L6.79688 14.9268L3.23828 12.9463V12.9473C2.7064 12.6528 2.26206 12.1623 1.95215 11.6367C1.64238 11.1113 1.42879 10.486 1.42871 9.87891V6.11231C1.42871 5.50508 1.64227 4.87905 1.95215 4.35352C2.26202 3.82807 2.70649 3.33847 3.23828 3.04395L6.79785 1.07032V1.07129C7.30116 0.789586 7.91893 0.667007 8.5 0.666021Z" fill="white"/>
</svg>
