<svg width="17" height="16" viewBox="0 0 17 16" fill="none" xmlns="http://www.w3.org/2000/svg">
<path d="M6.49996 7.33268C7.23634 7.33268 7.83329 6.73573 7.83329 5.99935C7.83329 5.26297 7.23634 4.66602 6.49996 4.66602C5.76358 4.66602 5.16663 5.26297 5.16663 5.99935C5.16663 6.73573 5.76358 7.33268 6.49996 7.33268Z" stroke="white" stroke-width="1.33" stroke-linecap="round" stroke-linejoin="round"/>
<path d="M12.4427 7.2246L12.9318 6.77407L12.9317 6.77399L12.4427 7.2246ZM10.5573 7.2246L10.0683 6.77399L10.0682 6.77407L10.5573 7.2246ZM4.01087 13.3502C3.76205 13.6204 3.77933 14.0411 4.04947 14.2899C4.3196 14.5387 4.7403 14.5215 4.98913 14.2513L4.01087 13.3502ZM14.5 9.45816L14.9891 9.00762L12.9318 6.77407L12.4427 7.2246L11.9535 7.67514L14.0109 9.90869L14.5 9.45816ZM12.4427 7.2246L12.9317 6.77399C12.562 6.37271 12.0483 6.13578 11.5 6.13578V6.80078V7.46578C11.6588 7.46578 11.8233 7.53374 11.9536 7.67521L12.4427 7.2246ZM11.5 6.80078V6.13578C10.9517 6.13578 10.438 6.37271 10.0683 6.77399L10.5573 7.2246L11.0464 7.67521C11.1767 7.53374 11.3412 7.46578 11.5 7.46578V6.80078ZM10.5573 7.2246L10.0682 6.77407L4.01087 13.3502L4.5 13.8008L4.98913 14.2513L11.0465 7.67514L10.5573 7.2246Z" fill="white"/>
<path d="M13.167 1.33594C14.2704 1.33611 15.1649 2.23059 15.165 3.33398V10.5059C14.7761 10.2458 14.3234 10.0738 13.835 10.0195V3.33398C13.8348 2.96513 13.5358 2.66619 13.167 2.66602H3.83301C3.46416 2.66619 3.16521 2.96513 3.16504 3.33398V12.668C3.16521 13.0368 3.46416 13.3358 3.83301 13.3359H10.5195C10.5738 13.8244 10.7449 14.2772 11.0049 14.666H3.83301C2.72962 14.6658 1.83514 13.7714 1.83496 12.668V3.33398C1.83514 2.23059 2.72962 1.33611 3.83301 1.33594H13.167Z" fill="white"/>
<path d="M11.5 12.0371L13.5068 13.0371L15.5 12.043" stroke="white" stroke-width="0.5" stroke-linejoin="round"/>
<path d="M13.5034 15V13" stroke="white" stroke-width="0.5" stroke-linecap="round" stroke-linejoin="round"/>
<path d="M13.0718 11.0963L11.961 11.6885C11.7093 11.8225 11.5034 12.1586 11.5034 12.4347V13.5651C11.5034 13.8411 11.7093 14.1772 11.961 14.3113L13.0718 14.9055C13.3089 15.0315 13.6979 15.0315 13.935 14.9055L15.0458 14.3113C15.2975 14.1772 15.5034 13.8411 15.5034 13.5651V12.4347C15.5034 12.1586 15.2975 11.8225 15.0458 11.6885L13.935 11.0943C13.6958 10.9682 13.3089 10.9682 13.0718 11.0963Z" stroke="white" stroke-width="0.5" stroke-linecap="round" stroke-linejoin="round"/>
</svg>
