<svg width="17" height="16" viewBox="0 0 17 16" fill="none" xmlns="http://www.w3.org/2000/svg">
<g clip-path="url(#clip0_1065_3130)">
<path d="M2.5 4.66667V3.33333C2.5 2.97971 2.64048 2.64057 2.89052 2.39052C3.14057 2.14048 3.47971 2 3.83333 2H5.16667" stroke="white" stroke-width="1.33" stroke-linecap="round" stroke-linejoin="round"/>
<path d="M11.8334 2H13.1667C13.5203 2 13.8595 2.14048 14.1095 2.39052C14.3596 2.64057 14.5 2.97971 14.5 3.33333V4.66667" stroke="white" stroke-width="1.33" stroke-linecap="round" stroke-linejoin="round"/>
<path d="M5.16667 14.0007H3.83333C3.47971 14.0007 3.14057 13.8602 2.89052 13.6101C2.64048 13.3601 2.5 13.0209 2.5 12.6673V11.334" stroke="white" stroke-width="1.33" stroke-linecap="round" stroke-linejoin="round"/>
<path d="M5.83337 9.33398C5.83337 9.33398 6.83337 10.6673 8.50004 10.6673C10.1667 10.6673 11.1667 9.33398 11.1667 9.33398" stroke="white" stroke-width="1.33" stroke-linecap="round" stroke-linejoin="round"/>
<path d="M6.5 6H6.50667" stroke="white" stroke-width="1.33" stroke-linecap="round" stroke-linejoin="round"/>
<path d="M10.5 6H10.5067" stroke="white" stroke-width="1.33" stroke-linecap="round" stroke-linejoin="round"/>
<path d="M14.5209 11.416H12.75C12.6395 11.416 12.5336 11.4599 12.4554 11.5381C12.3773 11.6162 12.3334 11.7222 12.3334 11.8327V15.166C12.3334 15.2765 12.3773 15.3825 12.4554 15.4606C12.5336 15.5388 12.6395 15.5827 12.75 15.5827H15.25C15.3605 15.5827 15.4665 15.5388 15.5447 15.4606C15.6228 15.3825 15.6667 15.2765 15.6667 15.166V12.5618L14.5209 11.416Z" stroke="white" stroke-width="0.5" stroke-linecap="round" stroke-linejoin="round"/>
<path d="M14.4166 11.416V12.666H15.6666" stroke="white" stroke-width="0.5" stroke-linecap="round" stroke-linejoin="round"/>
<path d="M13.5833 14.1243C13.8134 14.1243 14 13.9378 14 13.7077C14 13.4776 13.8134 13.291 13.5833 13.291C13.3532 13.291 13.1666 13.4776 13.1666 13.7077C13.1666 13.9378 13.3532 14.1243 13.5833 14.1243Z" stroke="white" stroke-width="0.5" stroke-linecap="round" stroke-linejoin="round"/>
<path d="M15.6667 14.5416L15.4396 14.3145C15.3616 14.2369 15.256 14.1934 15.1459 14.1934C15.0358 14.1934 14.9302 14.2369 14.8521 14.3145L13.5834 15.5833" stroke="white" stroke-width="0.5" stroke-linecap="round" stroke-linejoin="round"/>
</g>
<defs>
<clipPath id="clip0_1065_3130">
<rect width="16" height="16" fill="white" transform="translate(0.5)"/>
</clipPath>
</defs>
</svg>
